<svg width="56" height="24" viewBox="0 0 56 24" fill="none" xmlns="http://www.w3.org/2000/svg">
<path fill-rule="evenodd" clip-rule="evenodd" d="M14.5 16V0H17.5V16H14.5ZM6 13C7.65685 13 9 11.6569 9 10C9 8.34315 7.65685 7 6 7C4.34315 7 3 8.34315 3 10C3 11.6569 4.34315 13 6 13ZM6 16C9.31371 16 12 13.3137 12 10C12 6.68629 9.31371 4 6 4C2.68629 4 0 6.68629 0 10C0 13.3137 2.68629 16 6 16ZM26 13C27.6569 13 29 11.6569 29 10C29 8.34315 27.6569 7 26 7C24.3431 7 23 8.34315 23 10C23 11.6569 24.3431 13 26 13ZM26 16C29.3137 16 32 13.3137 32 10C32 6.68629 29.3137 4 26 4C22.6863 4 20 6.68629 20 10C20 13.3137 22.6863 16 26 16ZM40.5 13C38.8431 13 37.5 11.6569 37.5 10V4H34.5V10C34.5 13.3137 37.1863 16 40.5 16C42.292 16 43.9006 15.2144 45 13.9687C46.0994 15.2144 47.708 16 49.5 16C52.8137 16 55.5 13.3137 55.5 10V4H52.5V10C52.5 11.6569 51.1569 13 49.5 13C47.8431 13 46.5 11.6569 46.5 10V4H43.5V10C43.5 11.6569 42.1569 13 40.5 13ZM3 18C3 19.6569 4.34315 21 6 21C7.65685 21 9 19.6569 9 18H12C12 21.3137 9.31371 24 6 24C2.68629 24 0 21.3137 0 18H3Z" fill="white"/>
</svg>
